Abduction_states
version=1
nRows=11
nColumns=41
inDegrees=yes

# SIMM Motion File Header:
name Abduction_states
datacolumns 41
datarows 11
otherdata 1
range 0.00000000 1.37868909
endheader
time	/jointset/ground_thorax/thorax_tilt/value	/jointset/ground_thorax/thorax_tilt/speed	/jointset/ground_thorax/thorax_list/value	/jointset/ground_thorax/thorax_list/speed	/jointset/ground_thorax/thorax_rotation/value	/jointset/ground_thorax/thorax_rotation/speed	/jointset/ground_thorax/thorax_tx/value	/jointset/ground_thorax/thorax_tx/speed	/jointset/ground_thorax/thorax_ty/value	/jointset/ground_thorax/thorax_ty/speed	/jointset/ground_thorax/thorax_tz/value	/jointset/ground_thorax/thorax_tz/speed	/jointset/sternoclavicular/sternoclavicular_r2/value	/jointset/sternoclavicular/sternoclavicular_r2/speed	/jointset/sternoclavicular/sternoclavicular_r3/value	/jointset/sternoclavicular/sternoclavicular_r3/speed	/jointset/unrotscap/unrotscap_r3/value	/jointset/unrotscap/unrotscap_r3/speed	/jointset/unrotscap/unrotscap_r2/value	/jointset/unrotscap/unrotscap_r2/speed	/jointset/acromioclavicular/acromioclavicular_r2/value	/jointset/acromioclavicular/acromioclavicular_r2/speed	/jointset/acromioclavicular/acromioclavicular_r3/value	/jointset/acromioclavicular/acromioclavicular_r3/speed	/jointset/acromioclavicular/acromioclavicular_r1/value	/jointset/acromioclavicular/acromioclavicular_r1/speed	/jointset/unrothum/unrothum_r1/value	/jointset/unrothum/unrothum_r1/speed	/jointset/unrothum/unrothum_r3/value	/jointset/unrothum/unrothum_r3/speed	/jointset/unrothum/unrothum_r2/value	/jointset/unrothum/unrothum_r2/speed	/jointset/shoulder0/elv_angle/value	/jointset/shoulder0/elv_angle/speed	/jointset/shoulder1/shoulder_elv/value	/jointset/shoulder1/shoulder_elv/speed	/jointset/shoulder1/shoulder1_r2/value	/jointset/shoulder1/shoulder1_r2/speed	/jointset/shoulder2/shoulder_rot/value	/jointset/shoulder2/shoulder_rot/speed
      0.00000000	      0.00000000	      0.00000000	      0.00000000	      0.00000000	      0.00000000	      0.00000000	      0.00000000	      0.00000000	      0.00000000	      0.00000000	      0.00000000	      0.00000000	      0.00000000	      0.00000000	     -0.00000000	      0.00000000	      0.00000000	      0.00000000	     -0.00000000	      0.00000000	      0.00000000	      0.00000000	     -0.00000000	      0.00000000	     -0.00000000	      0.00000000	      0.00000000	      0.00000000	      0.00000000	      0.00000000	     -0.00000000	      0.00000000	     30.00000000	      0.00000000	     -0.00000000	      0.00000000	    -30.00000000	      0.00000000	      0.00000000	      0.00000000
      0.01000000	     -0.00000000	     -0.00000000	     -0.00000000	     -0.00000000	      0.00000000	      0.00000000	      0.00000000	      0.00000000	      0.00000000	      0.00000000	     -0.00000000	     -0.00000000	     -0.00065188	     -0.13035654	      0.00027611	      0.05521283	     -0.00027611	     -0.05521283	      0.00065188	      0.13035654	     -0.00013199	     -0.02639434	      0.00106670	      0.21330696	      0.00047949	      0.09588217	     -0.00047949	     -0.09588217	     -0.00106670	     -0.21330696	      0.00013199	      0.02639434	     30.00000000	      0.00000000	      0.00269376	      0.53866848	    -30.00000000	     -0.00000000	     -0.00000000	     -0.00000000
      0.06000000	      0.00000000	      0.00000000	     -0.00000000	     -0.00000000	      0.00000000	      0.00000000	     -0.00000000	     -0.00000000	      0.00000000	     -0.00000000	      0.00000000	      0.00000000	     -0.02343108	     -0.78030081	      0.00992429	      0.33049833	     -0.00992429	     -0.33049833	      0.02343108	      0.78030081	     -0.00474428	     -0.15799382	      0.03834110	      1.27683347	      0.01723445	      0.57394077	     -0.01723445	     -0.57394077	     -0.03834110	     -1.27683347	      0.00474428	      0.15799382	     30.00000000	      0.00000000	      0.09682357	      3.22441403	    -30.00000000	     -0.00000000	     -0.00000000	      0.00000000
      0.31000000	      0.00000000	     -0.00000000	     -0.00000000	     -0.00000000	      0.00000000	      0.00000000	     -0.00000000	     -0.00000000	      0.00000000	      0.00000000	     -0.00000000	     -0.00000000	     -0.62058150	     -3.98418281	      0.26284883	      1.68751047	     -0.26284883	     -1.68751047	      0.62058150	      3.98418281	     -0.12565416	     -0.80670976	      1.01547919	      6.51945753	      0.45646118	      2.93051723	     -0.45646118	     -2.93051723	     -1.01547919	     -6.51945753	      0.12565416	      0.80670976	     30.00000000	     -0.00000000	      2.56441066	     16.46372125	    -30.00000000	     -0.00000000	      0.00000000	      0.00000000
      0.71233343	     -0.00000000	     -0.00000000	     -0.00000000	     -0.00000000	     -0.00000000	     -0.00000000	     -0.00000000	     -0.00000000	     -0.00000000	     -0.00000000	     -0.00000000	     -0.00000000	     -3.23516097	     -8.97959851	      1.37026042	      3.80333112	     -1.37026042	     -3.80333112	      3.23516097	      8.97959851	     -0.65504925	     -1.81817204	      5.29380693	     14.69363077	      2.37958332	      6.60483451	     -2.37958332	     -6.60483451	     -5.29380693	    -14.69363077	      0.65504925	      1.81817204	     30.00000000	      0.00000000	     13.36856037	     37.10613038	    -30.00000000	     -0.00000000	      0.00000000	      0.00000000
      0.87172129	     -0.00000000	     -0.00000000	     -0.00000000	     -0.00000000	     -0.00000000	     -0.00000000	     -0.00000000	     -0.00000000	     -0.00000000	     -0.00000000	     -0.00000000	     -0.00000000	     -4.82008256	    -10.90257366	      2.04155787	      4.61781199	     -2.04155787	     -4.61781199	      4.82008256	     10.90257366	     -0.97596116	     -2.20753240	      7.88726950	     17.84026220	      3.54535313	      8.01925551	     -3.54535313	     -8.01925551	     -7.88726950	    -17.84026220	      0.97596116	      2.20753240	     30.00000000	      0.00000000	     19.91788517	     45.05238394	    -30.00000000	     -0.00000000	      0.00000000	      0.00000000
      0.97844085	     -0.00000000	     -0.00000000	     -0.00000000	     -0.00000000	     -0.00000000	     -0.00000000	     -0.00000000	      0.00000000	     -0.00000000	     -0.00000000	     -0.00000000	     -0.00000000	     -6.05145069	    -12.17161258	      2.56310688	      5.15531656	     -2.56310688	     -5.15531656	      6.05145069	     12.17161258	     -1.22528624	     -2.46448499	      9.90220020	     19.91683492	      4.45107099	      8.95268166	     -4.45107099	     -8.95268166	     -9.90220020	    -19.91683492	      1.22528624	      2.46448499	     30.00000000	      0.00000000	     25.00623142	     50.29639610	    -30.00000000	     -0.00000000	      0.00000000	      0.00000000
      1.08666852	     -0.00000000	     -0.00000000	     -0.00000000	     -0.00000000	     -0.00000000	     -0.00000000	     -0.00000000	      0.00000000	     -0.00000000	     -0.00000000	     -0.00000000	     -0.00000000	     -7.43769126	    -13.44277445	      3.15025250	      5.69372031	     -3.15025250	     -5.69372031	      7.43769126	     13.44277445	     -1.50596959	     -2.72186742	     12.17055406	     21.99688150	      5.47070338	      9.88766932	     -5.47070338	     -9.88766932	    -12.17055406	    -21.99688150	      1.50596959	      2.72186742	     30.00000000	      0.00000000	     30.73455247	     55.54918083	    -30.00000000	     -0.00000000	      0.00000000	      0.00000000
      1.19697658	     -0.00000000	      0.00000000	     -0.00000000	     -0.00000000	     -0.00000000	     -0.00000000	     -0.00000000	     -0.00000000	     -0.00000000	     -0.00000000	     -0.00000000	     -0.00000000	     -8.99118155	    -14.72014903	      3.80823715	      6.23475547	     -3.80823715	     -6.23475547	      8.99118155	     14.72014903	     -1.82051735	     -2.98050780	     14.71258451	     24.08709415	      6.61335428	     10.82722666	     -6.61335428	    -10.82722666	    -14.71258451	    -24.08709415	      1.82051735	      2.98050780	     30.00000000	      0.00000000	     37.15399465	     60.82763818	    -30.00000000	     -0.00000000	      0.00000000	      0.00000000
      1.29758159	     -0.00000000	      0.00000000	     -0.00000000	     -0.00000000	     -0.00000000	     -0.00000000	     -0.00000000	      0.00000000	     -0.00000000	     -0.00000000	     -0.00000000	     -0.00000000	    -10.52973600	    -15.85954145	      4.45989568	      6.71734794	     -4.45989568	     -6.71734794	     10.52973600	     15.85954145	     -2.13204093	     -3.21120981	     17.23017491	     25.95152177	      7.74501930	     11.66529290	     -7.74501930	    -11.66529290	    -17.23017491	    -25.95152177	      2.13204093	      3.21120981	     30.00000000	      0.00000000	     43.51171786	     65.53591589	    -30.00000000	     -0.00000000	      0.00000000	      0.00000000
      1.37868909	     -0.00000000	      0.00000000	     -0.00000000	     -0.00000000	     -0.00000000	     -0.00000000	     -0.00000000	      0.00000000	     -0.00000000	     -0.00000000	     -0.00000000	     -0.00000000	    -11.85176102	    -16.72522642	      5.01984264	      7.08401094	     -5.01984264	     -7.08401094	     11.85176102	     16.72522642	     -2.39972205	     -3.38649206	     19.39345063	     27.36807234	      8.71741873	     12.30203695	     -8.71741873	    -12.30203695	    -19.39345063	    -27.36807234	      2.39972205	      3.38649206	     30.00000000	      0.00000000	     48.97468290	     69.11316040	    -30.00000000	     -0.00000000	      0.00000000	      0.00000000
